<?xml version="1.0" encoding="UTF-8"?>
<!DOCTYPE svg PUBLIC "-//W3C//DTD SVG 1.1//EN" "http://www.w3.org/Graphics/SVG/1.1/DTD/svg11.dtd">
<svg xmlns="http://www.w3.org/2000/svg" version="1.1" width="537px" height="552px" style="shape-rendering:geometricPrecision; text-rendering:geometricPrecision; image-rendering:optimizeQuality; fill-rule:evenodd; clip-rule:evenodd" xmlns:xlink="http://www.w3.org/1999/xlink">
<g><path style="opacity:1" fill="#fefefe" d="M 487.5,6.5 C 489.515,7.92381 491.848,8.59047 494.5,8.5C 500.26,9.87798 505.26,12.5446 509.5,16.5C 509.973,17.9063 510.973,18.573 512.5,18.5C 514.167,19.5 515.5,20.8333 516.5,22.5C 516.738,24.4044 517.738,25.7377 519.5,26.5C 520.167,26.5 520.5,26.8333 520.5,27.5C 520.427,29.0269 521.094,30.0269 522.5,30.5C 526.152,34.8084 528.486,39.8084 529.5,45.5C 529.753,49.0399 530.419,52.3733 531.5,55.5C 532.666,201.666 532.833,347.999 532,494.5C 531.809,496.708 531.309,498.708 530.5,500.5C 529.076,502.515 528.41,504.848 528.5,507.5C 527.624,511.582 525.957,515.249 523.5,518.5C 522.094,518.973 521.427,519.973 521.5,521.5C 520.167,524.493 518.167,526.827 515.5,528.5C 514.167,529.167 513.167,530.167 512.5,531.5C 512.167,532.5 511.5,533.167 510.5,533.5C 508.973,533.427 507.973,534.094 507.5,535.5C 499.896,541.258 491.23,544.258 481.5,544.5C 336.861,543.505 192.195,543.171 47.5,543.5C 44.5049,543.706 41.8383,543.04 39.5,541.5C 38.2196,540.069 36.5529,539.402 34.5,539.5C 33.5084,539.672 32.8417,539.338 32.5,538.5C 32.0269,537.094 31.0269,536.427 29.5,536.5C 29.0269,535.094 28.0269,534.427 26.5,534.5C 17.8449,528.83 11.8449,521.163 8.5,511.5C 8.3404,509.847 7.67373,508.514 6.5,507.5C 4.39691,502.749 3.39691,497.749 3.5,492.5C 3.17898,345.155 3.51232,197.822 4.5,50.5C 4.92638,46.0983 6.25972,42.0983 8.5,38.5C 9.67373,37.4863 10.3404,36.153 10.5,34.5C 10.3284,33.5084 10.6618,32.8417 11.5,32.5C 12.9063,32.0269 13.573,31.0269 13.5,29.5C 14.4194,26.9108 16.086,24.9108 18.5,23.5C 20.8333,21.8333 22.8333,19.8333 24.5,17.5C 25.2623,15.7376 26.5956,14.7376 28.5,14.5C 30.0269,14.573 31.0269,13.9063 31.5,12.5C 32.5137,11.3263 33.847,10.6596 35.5,10.5C 38.5418,10.2671 41.2084,9.26708 43.5,7.5C 191.332,6.50038 339.332,6.16704 487.5,6.5 Z M 245.5,46.5 C 262.181,46.3337 278.848,46.667 295.5,47.5C 299.639,48.5629 303.972,49.2296 308.5,49.5C 311.219,50.913 314.219,51.5797 317.5,51.5C 319.961,52.531 322.627,53.1977 325.5,53.5C 327.515,54.9238 329.848,55.5905 332.5,55.5C 334.302,56.4582 336.302,57.1249 338.5,57.5C 341.215,59.0719 344.215,60.0719 347.5,60.5C 350.54,62.3459 353.873,63.6792 357.5,64.5C 359.426,66.2927 361.759,67.2927 364.5,67.5C 369.516,70.6745 374.849,73.3412 380.5,75.5C 380.973,76.9063 381.973,77.573 383.5,77.5C 383.842,78.3382 384.508,78.6716 385.5,78.5C 385.973,79.9063 386.973,80.573 388.5,80.5C 388.842,81.3382 389.508,81.6716 390.5,81.5C 390.973,82.9063 391.973,83.573 393.5,83.5C 393.973,84.9063 394.973,85.573 396.5,85.5C 396.973,86.9063 397.973,87.573 399.5,87.5C 399.973,88.9063 400.973,89.573 402.5,89.5C 403.23,90.7124 404.23,91.7124 405.5,92.5C 405.376,93.1067 405.043,93.44 404.5,93.5C 313.598,92.1684 222.598,92.1684 131.5,93.5C 133.479,90.8544 135.812,88.5211 138.5,86.5C 140.027,86.573 141.027,85.9063 141.5,84.5C 142.167,84.5 142.5,84.1667 142.5,83.5C 144.027,83.573 145.027,82.9063 145.5,81.5C 152.505,77.492 159.505,73.492 166.5,69.5C 168.819,69.0075 170.819,68.0075 172.5,66.5C 174.153,66.3404 175.486,65.6737 176.5,64.5C 177.492,64.6716 178.158,64.3382 178.5,63.5C 180.553,63.5979 182.22,62.9313 183.5,61.5C 185.553,61.5979 187.22,60.9313 188.5,59.5C 200.42,55.5226 212.42,52.1893 224.5,49.5C 228.705,49.2833 232.705,48.6167 236.5,47.5C 239.713,47.81 242.713,47.4767 245.5,46.5 Z M 5.5,104.5 C 58.1677,104.333 110.834,104.5 163.5,105C 161.321,120.441 159.321,135.941 157.5,151.5C 156.205,155.267 155.539,159.267 155.5,163.5C 154.215,166.589 153.549,169.922 153.5,173.5C 229.999,174.666 306.666,174.832 383.5,174C 382.518,171.262 381.852,168.428 381.5,165.5C 380.492,161.407 379.492,157.407 378.5,153.5C 377.895,144.258 376.561,135.258 374.5,126.5C 374.813,122.958 374.479,119.625 373.5,116.5C 373.5,112.5 373.5,108.5 373.5,104.5C 425.5,104.5 477.5,104.5 529.5,104.5C 529.5,106.5 529.5,108.5 529.5,110.5C 496.165,110.333 462.832,110.5 429.5,111C 428.434,112.159 428.767,112.992 430.5,113.5C 433.862,117.192 437.195,120.859 440.5,124.5C 441.08,126.749 442.413,128.415 444.5,129.5C 445.701,131.909 447.367,133.909 449.5,135.5C 449.427,137.027 450.094,138.027 451.5,138.5C 451.5,139.167 451.833,139.5 452.5,139.5C 452.427,141.027 453.094,142.027 454.5,142.5C 454.427,144.027 455.094,145.027 456.5,145.5C 456.932,146.71 457.599,147.71 458.5,148.5C 458.427,150.027 459.094,151.027 460.5,151.5C 460.427,153.027 461.094,154.027 462.5,154.5C 462.328,155.492 462.662,156.158 463.5,156.5C 463.75,158.674 464.75,160.341 466.5,161.5C 466.66,163.153 467.326,164.486 468.5,165.5C 468.66,167.153 469.326,168.486 470.5,169.5C 471.326,172.485 472.659,175.151 474.5,177.5C 474.472,179.582 475.139,181.416 476.5,183C 407.167,183.167 337.833,183.333 268.5,183.5C 198.83,183.5 129.497,182.833 60.5,181.5C 64.6745,174.484 68.3412,167.151 71.5,159.5C 72.9063,159.027 73.573,158.027 73.5,156.5C 75.653,154.206 77.3197,151.54 78.5,148.5C 79.9063,148.027 80.573,147.027 80.5,145.5C 82.2181,143.777 83.5514,141.777 84.5,139.5C 85.9063,139.027 86.573,138.027 86.5,136.5C 90.1803,132.817 93.5136,128.817 96.5,124.5C 98.914,123.089 100.581,121.089 101.5,118.5C 103.5,117.167 105.167,115.5 106.5,113.5C 108.233,112.992 108.566,112.159 107.5,111C 73.5016,110.5 39.5016,110.333 5.5,110.5C 5.5,108.5 5.5,106.5 5.5,104.5 Z M 5.5,193.5 C 53.3363,193.168 101.003,193.501 148.5,194.5C 146.592,198.903 145.259,203.57 144.5,208.5C 143.262,210.214 142.595,212.214 142.5,214.5C 141.833,214.5 141.5,214.833 141.5,215.5C 140.629,218.112 139.963,220.779 139.5,223.5C 137.928,226.215 136.928,229.215 136.5,232.5C 135.069,233.78 134.402,235.447 134.5,237.5C 133.596,238.209 133.263,239.209 133.5,240.5C 132.069,241.78 131.402,243.447 131.5,245.5C 130.069,246.78 129.402,248.447 129.5,250.5C 127.408,253.088 126.075,256.088 125.5,259.5C 124.326,260.514 123.66,261.847 123.5,263.5C 122.596,264.209 122.263,265.209 122.5,266.5C 219.5,266.5 316.5,266.5 413.5,266.5C 413.768,264.901 413.434,263.568 412.5,262.5C 412.34,260.847 411.674,259.514 410.5,258.5C 409.958,255.088 408.625,252.088 406.5,249.5C 401.948,237.835 397.614,226.169 393.5,214.5C 393.405,212.214 392.738,210.214 391.5,208.5C 390.769,203.562 389.435,198.895 387.5,194.5C 434.664,193.501 481.997,193.168 529.5,193.5C 529.5,195.833 529.5,198.167 529.5,200.5C 514.167,200.5 498.833,200.5 483.5,200.5C 484.057,205.165 485.39,209.498 487.5,213.5C 487.676,216.727 488.343,219.727 489.5,222.5C 489.872,228.732 490.872,234.732 492.5,240.5C 492.187,244.042 492.521,247.375 493.5,250.5C 493.5,257.833 493.5,265.167 493.5,272.5C 343.5,272.5 193.5,272.5 43.5,272.5C 43.7373,271.209 43.404,270.209 42.5,269.5C 43.1388,247.381 46.4722,225.714 52.5,204.5C 53.4345,203.432 53.7678,202.099 53.5,200.5C 37.5,200.5 21.5,200.5 5.5,200.5C 5.5,198.167 5.5,195.833 5.5,193.5 Z M 113.5,284.5 C 111.412,286.336 110.079,288.669 109.5,291.5C 108.662,291.842 108.328,292.508 108.5,293.5C 106.412,295.336 105.079,297.669 104.5,300.5C 103.662,300.842 103.328,301.508 103.5,302.5C 102.094,302.973 101.427,303.973 101.5,305.5C 98.015,309.79 95.015,314.457 92.5,319.5C 91.0937,319.973 90.427,320.973 90.5,322.5C 89.0937,322.973 88.427,323.973 88.5,325.5C 86.4776,327.531 84.8109,329.865 83.5,332.5C 82.0937,332.973 81.427,333.973 81.5,335.5C 78.8154,338.19 76.4821,341.19 74.5,344.5C 73.0937,344.973 72.427,345.973 72.5,347.5C 71.8333,347.5 71.5,347.833 71.5,348.5C 70.5222,348.811 69.8555,349.478 69.5,350.5C 202.167,351.833 334.833,351.833 467.5,350.5C 467.145,349.478 466.478,348.811 465.5,348.5C 465.573,346.973 464.906,345.973 463.5,345.5C 463.5,344.833 463.167,344.5 462.5,344.5C 462.262,342.596 461.262,341.262 459.5,340.5C 459.5,339.833 459.167,339.5 458.5,339.5C 458.262,337.596 457.262,336.262 455.5,335.5C 455.573,333.973 454.906,332.973 453.5,332.5C 453.5,331.833 453.167,331.5 452.5,331.5C 452.573,329.973 451.906,328.973 450.5,328.5C 450.262,326.596 449.262,325.262 447.5,324.5C 447.573,322.973 446.906,321.973 445.5,321.5C 445.573,319.973 444.906,318.973 443.5,318.5C 443.573,316.973 442.906,315.973 441.5,315.5C 441.573,313.973 440.906,312.973 439.5,312.5C 439.672,311.508 439.338,310.842 438.5,310.5C 438.573,308.973 437.906,307.973 436.5,307.5C 436.672,306.508 436.338,305.842 435.5,305.5C 435.573,303.973 434.906,302.973 433.5,302.5C 433.573,300.973 432.906,299.973 431.5,299.5C 431.34,297.847 430.674,296.514 429.5,295.5C 428.921,292.669 427.588,290.336 425.5,288.5C 425.107,286.716 424.441,285.05 423.5,283.5C 458.502,283.333 493.502,283.5 528.5,284C 529.435,286.381 529.768,288.881 529.5,291.5C 517.322,291.172 505.322,291.505 493.5,292.5C 491.729,299.958 490.395,307.624 489.5,315.5C 487.721,320.278 486.387,325.278 485.5,330.5C 484.076,332.515 483.41,334.848 483.5,337.5C 481.595,341.216 480.261,345.216 479.5,349.5C 478.069,350.78 477.402,352.447 477.5,354.5C 476.069,355.78 475.402,357.447 475.5,359.5C 337.498,359.833 199.498,359.5 61.5,358.5C 57.9391,349.801 54.6058,341.135 51.5,332.5C 51.7062,329.505 51.0395,326.838 49.5,324.5C 49.1977,321.627 48.531,318.961 47.5,316.5C 47.0203,310.614 46.0203,304.948 44.5,299.5C 44.5987,296.763 44.2653,294.096 43.5,291.5C 30.9317,290.815 18.265,290.149 5.5,289.5C 5.5,287.5 5.5,285.5 5.5,283.5C 41.6705,283.168 77.6705,283.502 113.5,284.5 Z M 253.5,401.5 C 254.514,402.674 255.847,403.34 257.5,403.5C 258.5,405.167 259.833,406.5 261.5,407.5C 262.981,411.325 263.815,415.325 264,419.5C 264.667,447.167 264.667,474.833 264,502.5C 263.283,503.044 262.783,503.711 262.5,504.5C 258.881,505.244 255.215,505.577 251.5,505.5C 250.71,504.599 249.71,503.932 248.5,503.5C 247.85,476.039 247.183,448.706 246.5,421.5C 246.5,420.833 246.167,420.5 245.5,420.5C 223.337,419.337 201.004,419.17 178.5,420C 177.584,420.278 176.918,420.778 176.5,421.5C 175.668,448.997 175.168,476.664 175,504.5C 174.005,505.066 173.172,505.733 172.5,506.5C 168.452,506.605 164.452,506.272 160.5,505.5C 160.013,504.527 159.513,503.527 159,502.5C 158.333,473.167 158.333,443.833 159,414.5C 159.653,408.335 162.82,404.168 168.5,402C 193.524,401.815 218.524,401.315 243.5,400.5C 246.783,401.327 250.116,401.66 253.5,401.5 Z M 60.5,407.5 C 59.8421,434.521 60.5088,461.188 62.5,487.5C 73.1667,488.833 83.8333,488.833 94.5,487.5C 106.833,487.5 119.167,487.5 131.5,487.5C 131.5,460.167 131.5,432.833 131.5,405.5C 132.316,403.856 133.65,402.69 135.5,402C 139.701,401.078 143.701,401.578 147.5,403.5C 148.667,433.828 148.833,464.161 148,494.5C 147.495,496.518 146.995,498.518 146.5,500.5C 144.5,501.833 142.833,503.5 141.5,505.5C 140.209,505.263 139.209,505.596 138.5,506.5C 110.833,506.5 83.1667,506.5 55.5,506.5C 53.351,505.264 51.0177,504.264 48.5,503.5C 45.2903,499.408 43.457,494.741 43,489.5C 42.3333,461.833 42.3333,434.167 43,406.5C 47.422,401.44 52.5886,400.607 58.5,404C 59.0848,405.302 59.7515,406.469 60.5,407.5 Z M 371.5,401.5 C 373.111,405.99 373.778,410.657 373.5,415.5C 372.766,416.878 372.099,418.378 371.5,420C 346.833,420.333 322.167,420.667 297.5,421C 296.584,421.278 295.918,421.778 295.5,422.5C 294.833,422.5 294.5,422.833 294.5,423.5C 292.896,424.287 292.229,425.62 292.5,427.5C 291.694,428.997 291.028,430.664 290.5,432.5C 291.028,434.336 291.694,436.003 292.5,437.5C 292.229,439.38 292.896,440.713 294.5,441.5C 295.058,442.79 296.058,443.623 297.5,444C 322.164,444.5 346.831,444.667 371.5,444.5C 372.292,450.13 372.625,455.797 372.5,461.5C 371.596,462.209 371.263,463.209 371.5,464.5C 347.498,464.333 323.498,464.5 299.5,465C 298.263,465.232 297.263,465.732 296.5,466.5C 295.167,467.167 294.167,468.167 293.5,469.5C 291.983,471.462 291.316,473.795 291.5,476.5C 291.507,478.369 291.84,480.036 292.5,481.5C 292.328,482.492 292.662,483.158 293.5,483.5C 293.5,485.5 294.5,486.5 296.5,486.5C 296.842,487.338 297.508,487.672 298.5,487.5C 322.736,488.176 347.069,488.843 371.5,489.5C 371.263,490.791 371.596,491.791 372.5,492.5C 372.533,496.869 372.2,501.202 371.5,505.5C 343.907,506.491 316.241,506.824 288.5,506.5C 280.671,504.157 276.171,498.824 275,490.5C 274.333,465.833 274.333,441.167 275,416.5C 275.257,412.623 276.257,408.957 278,405.5C 279.319,403.513 281.152,402.346 283.5,402C 312.831,401.5 342.165,401.333 371.5,401.5 Z M 408.5,422.5 C 407.778,422.918 407.278,423.584 407,424.5C 406.333,444.5 406.333,464.5 407,484.5C 407.278,485.416 407.778,486.082 408.5,486.5C 408.611,487.117 408.944,487.617 409.5,488C 428.833,488.667 448.167,488.667 467.5,488C 468.416,487.722 469.082,487.222 469.5,486.5C 471.5,486.5 472.5,485.5 472.5,483.5C 474.531,480.292 474.865,476.959 473.5,473.5C 473.18,469.013 470.847,466.18 466.5,465C 456.167,464.667 445.833,464.333 435.5,464C 434.956,463.283 434.289,462.783 433.5,462.5C 432.705,458.215 432.372,453.881 432.5,449.5C 433.596,447.897 434.93,446.397 436.5,445C 452.5,444.333 468.5,444.333 484.5,445C 488.43,446.73 491.097,449.564 492.5,453.5C 492.667,467.837 492.5,482.171 492,496.5C 491.338,498.813 490.838,501.146 490.5,503.5C 489.373,504.122 488.373,504.955 487.5,506C 459.167,506.667 430.833,506.667 402.5,506C 400.846,505.392 399.179,504.892 397.5,504.5C 394.754,501.762 392.42,498.762 390.5,495.5C 389.529,470.866 389.195,446.199 389.5,421.5C 389.704,418.482 390.037,415.482 390.5,412.5C 393.068,407.436 397.068,403.936 402.5,402C 428.833,401.333 455.167,401.333 481.5,402C 485.041,407.598 485.375,413.432 482.5,419.5C 458.507,420.333 434.507,420.833 410.5,421C 409.584,421.278 408.918,421.778 408.5,422.5 Z"/></g>
<g><path style="opacity:0.702" fill="#d5dee8" d="M 487.5,6.5 C 490.152,6.40953 492.485,7.07619 494.5,8.5C 491.848,8.59047 489.515,7.92381 487.5,6.5 Z"/></g>
<g><path style="opacity:0.671" fill="#d9e0ea" d="M 43.5,7.5 C 41.2084,9.26708 38.5418,10.2671 35.5,10.5C 37.7916,8.73292 40.4582,7.73292 43.5,7.5 Z"/></g>
<g><path style="opacity:0.639" fill="#d5dee8" d="M 31.5,12.5 C 31.0269,13.9063 30.0269,14.573 28.5,14.5C 28.9731,13.0937 29.9731,12.427 31.5,12.5 Z"/></g>
<g><path style="opacity:0.316" fill="#d2dbe6" d="M 509.5,16.5 C 511.027,16.427 512.027,17.0937 512.5,18.5C 510.973,18.573 509.973,17.9063 509.5,16.5 Z"/></g>
<g><path style="opacity:0.584" fill="#d6dee8" d="M 24.5,17.5 C 22.8333,19.8333 20.8333,21.8333 18.5,23.5C 19.5,20.5 21.5,18.5 24.5,17.5 Z"/></g>
<g><path style="opacity:0.529" fill="#d5dde7" d="M 516.5,22.5 C 518.262,23.2623 519.262,24.5956 519.5,26.5C 517.738,25.7377 516.738,24.4044 516.5,22.5 Z"/></g>
<g><path style="opacity:0.447" fill="#d1d9e5" d="M 520.5,27.5 C 521.906,27.9731 522.573,28.9731 522.5,30.5C 521.094,30.0269 520.427,29.0269 520.5,27.5 Z"/></g>
<g><path style="opacity:0.561" fill="#d7dfe9" d="M 13.5,29.5 C 13.573,31.0269 12.9063,32.0269 11.5,32.5C 11.427,30.9731 12.0937,29.9731 13.5,29.5 Z"/></g>
<g><path style="opacity:0.576" fill="#d5dde8" d="M 10.5,34.5 C 10.3404,36.153 9.67373,37.4863 8.5,38.5C 8.22911,36.6203 8.89578,35.287 10.5,34.5 Z"/></g>
<g><path style="opacity:0.169" fill="#cad4e2" d="M 245.5,46.5 C 252.158,45.8337 258.992,45.5004 266,45.5C 276.047,45.3115 285.88,45.9781 295.5,47.5C 278.848,46.667 262.181,46.3337 245.5,46.5 Z"/></g>
<g><path style="opacity:0.478" fill="#cbd5e2" d="M 236.5,47.5 C 232.705,48.6167 228.705,49.2833 224.5,49.5C 228.21,47.8643 232.21,47.1977 236.5,47.5 Z"/></g>
<g><path style="opacity:0.478" fill="#cdd7e3" d="M 308.5,49.5 C 311.781,49.4203 314.781,50.087 317.5,51.5C 314.219,51.5797 311.219,50.913 308.5,49.5 Z"/></g>
<g><path style="opacity:0.478" fill="#cbd5e1" d="M 529.5,45.5 C 531.175,48.5072 531.841,51.8405 531.5,55.5C 530.419,52.3733 529.753,49.0399 529.5,45.5 Z"/></g>
<g><path style="opacity:0.016" fill="#d4dde7" d="M 325.5,53.5 C 328.152,53.4095 330.485,54.0762 332.5,55.5C 329.848,55.5905 327.515,54.9238 325.5,53.5 Z"/></g>
<g><path style="opacity:0.047" fill="#d4dde7" d="M 338.5,57.5 C 341.916,57.5275 344.916,58.5275 347.5,60.5C 344.215,60.0719 341.215,59.0719 338.5,57.5 Z"/></g>
<g><path style="opacity:0.131" fill="#cbd6e5" d="M 4.5,50.5 C 3.51232,197.822 3.17898,345.155 3.5,492.5C 2.33391,347.667 2.16724,202.667 3,57.5C 3.18618,54.9644 3.68618,52.631 4.5,50.5 Z"/></g>
<g><path style="opacity:0.031" fill="#d5dde7" d="M 188.5,59.5 C 187.22,60.9313 185.553,61.5979 183.5,61.5C 184.78,60.0687 186.447,59.4021 188.5,59.5 Z"/></g>
<g><path style="opacity:0.016" fill="#d4dce7" d="M 183.5,61.5 C 182.22,62.9313 180.553,63.5979 178.5,63.5C 179.78,62.0687 181.447,61.4021 183.5,61.5 Z"/></g>
<g><path style="opacity:0.047" fill="#d1dae5" d="M 176.5,64.5 C 175.486,65.6737 174.153,66.3404 172.5,66.5C 173.287,64.8958 174.62,64.2291 176.5,64.5 Z"/></g>
<g><path style="opacity:0.078" fill="#d1dae6" d="M 357.5,64.5 C 360.241,64.7073 362.574,65.7073 364.5,67.5C 361.759,67.2927 359.426,66.2927 357.5,64.5 Z"/></g>
<g><path style="opacity:0.031" fill="#d6dee8" d="M 172.5,66.5 C 170.819,68.0075 168.819,69.0075 166.5,69.5C 167.911,67.461 169.911,66.461 172.5,66.5 Z"/></g>
<g><path style="opacity:0.984" fill="#d1dae6" d="M 380.5,75.5 C 382.027,75.427 383.027,76.0937 383.5,77.5C 381.973,77.573 380.973,76.9063 380.5,75.5 Z"/></g>
<g><path style="opacity:1" fill="#d7dfe9" d="M 385.5,78.5 C 387.027,78.427 388.027,79.0937 388.5,80.5C 386.973,80.573 385.973,79.9063 385.5,78.5 Z"/></g>
<g><path style="opacity:0.094" fill="#d1dae5" d="M 145.5,81.5 C 145.027,82.9063 144.027,83.573 142.5,83.5C 142.973,82.0937 143.973,81.427 145.5,81.5 Z"/></g>
<g><path style="opacity:0.863" fill="#cfd9e4" d="M 390.5,81.5 C 392.027,81.427 393.027,82.0937 393.5,83.5C 391.973,83.573 390.973,82.9063 390.5,81.5 Z"/></g>
<g><path style="opacity:1" fill="#d8dfe9" d="M 393.5,83.5 C 395.027,83.427 396.027,84.0937 396.5,85.5C 394.973,85.573 393.973,84.9063 393.5,83.5 Z"/></g>
<g><path style="opacity:0.047" fill="#d0dae5" d="M 141.5,84.5 C 141.027,85.9063 140.027,86.573 138.5,86.5C 138.973,85.0937 139.973,84.427 141.5,84.5 Z"/></g>
<g><path style="opacity:1" fill="#d5dee8" d="M 396.5,85.5 C 398.027,85.427 399.027,86.0937 399.5,87.5C 397.973,87.573 396.973,86.9063 396.5,85.5 Z"/></g>
<g><path style="opacity:1" fill="#d5dde7" d="M 399.5,87.5 C 401.027,87.427 402.027,88.0937 402.5,89.5C 400.973,89.573 399.973,88.9063 399.5,87.5 Z"/></g>
<g><path style="opacity:0.031" fill="#dbe2eb" d="M 404.5,93.5 C 313.279,93.509 222.279,93.509 131.5,93.5C 222.598,92.1684 313.598,92.1684 404.5,93.5 Z"/></g>
<g><path style="opacity:0.537" fill="#c3cfde" d="M 529.5,104.5 C 477.5,104.5 425.5,104.5 373.5,104.5C 373.5,108.5 373.5,112.5 373.5,116.5C 372.515,112.366 372.182,108.032 372.5,103.5C 425.003,103.168 477.336,103.501 529.5,104.5 Z"/></g>
<g><path style="opacity:0.031" fill="#dae1ea" d="M 5.5,104.5 C 5.5,106.5 5.5,108.5 5.5,110.5C 39.5016,110.333 73.5016,110.5 107.5,111C 108.566,112.159 108.233,112.992 106.5,113.5C 72.8497,111.507 38.8497,110.84 4.5,111.5C 4.19845,108.941 4.53178,106.607 5.5,104.5 Z"/></g>
<g><path style="opacity:0.031" fill="#d8dfe9" d="M 529.5,104.5 C 530.468,106.607 530.802,108.941 530.5,111.5C 496.817,110.84 463.483,111.507 430.5,113.5C 428.767,112.992 428.434,112.159 429.5,111C 462.832,110.5 496.165,110.333 529.5,110.5C 529.5,108.5 529.5,106.5 529.5,104.5 Z"/></g>
<g><path style="opacity:0.094" fill="#d6dee8" d="M 101.5,118.5 C 100.581,121.089 98.914,123.089 96.5,124.5C 97.4194,121.911 99.086,119.911 101.5,118.5 Z"/></g>
<g><path style="opacity:0.741" fill="#d4dde7" d="M 440.5,124.5 C 442.587,125.585 443.92,127.251 444.5,129.5C 442.413,128.415 441.08,126.749 440.5,124.5 Z"/></g>
<g><path style="opacity:0.414" fill="#d4dce7" d="M 86.5,136.5 C 86.573,138.027 85.9063,139.027 84.5,139.5C 84.427,137.973 85.0937,136.973 86.5,136.5 Z"/></g>
<g><path style="opacity:0.012" fill="#d3dce6" d="M 449.5,135.5 C 450.906,135.973 451.573,136.973 451.5,138.5C 450.094,138.027 449.427,137.027 449.5,135.5 Z"/></g>
<g><path style="opacity:0.071" fill="#d3dbe7" d="M 452.5,139.5 C 453.906,139.973 454.573,140.973 454.5,142.5C 453.094,142.027 452.427,141.027 452.5,139.5 Z"/></g>
<g><path style="opacity:0.094" fill="#d0d9e4" d="M 374.5,126.5 C 376.561,135.258 377.895,144.258 378.5,153.5C 376.42,144.736 375.087,135.736 374.5,126.5 Z"/></g>
<g><path style="opacity:0.063" fill="#d2dbe6" d="M 454.5,142.5 C 455.906,142.973 456.573,143.973 456.5,145.5C 455.094,145.027 454.427,144.027 454.5,142.5 Z"/></g>
<g><path style="opacity:0.418" fill="#d3dce6" d="M 80.5,145.5 C 80.573,147.027 79.9063,148.027 78.5,148.5C 78.427,146.973 79.0937,145.973 80.5,145.5 Z"/></g>
<g><path style="opacity:0.412" fill="#d0d9e4" d="M 458.5,148.5 C 459.906,148.973 460.573,149.973 460.5,151.5C 459.094,151.027 458.427,150.027 458.5,148.5 Z"/></g>
<g><path style="opacity:0.102" fill="#d0d9e5" d="M 460.5,151.5 C 461.906,151.973 462.573,152.973 462.5,154.5C 461.094,154.027 460.427,153.027 460.5,151.5 Z"/></g>
<g><path style="opacity:0.406" fill="#cdd7e3" d="M 157.5,151.5 C 157.656,155.764 156.989,159.764 155.5,163.5C 155.539,159.267 156.205,155.267 157.5,151.5 Z"/></g>
<g><path style="opacity:0.071" fill="#d3dbe6" d="M 73.5,156.5 C 73.573,158.027 72.9063,159.027 71.5,159.5C 71.427,157.973 72.0937,156.973 73.5,156.5 Z"/></g>
<g><path style="opacity:0.063" fill="#d1dae5" d="M 463.5,156.5 C 465.25,157.659 466.25,159.326 466.5,161.5C 464.75,160.341 463.75,158.674 463.5,156.5 Z"/></g>
<g><path style="opacity:0.114" fill="#ced8e4" d="M 468.5,165.5 C 470.104,166.287 470.771,167.62 470.5,169.5C 469.326,168.486 468.66,167.153 468.5,165.5 Z"/></g>
<g><path style="opacity:0.69" fill="#cfd8e4" d="M 381.5,165.5 C 381.852,168.428 382.518,171.262 383.5,174C 306.666,174.832 229.999,174.666 153.5,173.5C 229.5,173.5 305.5,173.5 381.5,173.5C 380.742,170.648 380.742,167.981 381.5,165.5 Z"/></g>
<g><path style="opacity:0.506" fill="#c1cedd" d="M 474.5,177.5 C 476.293,179.426 477.293,181.759 477.5,184.5C 338.167,184.5 198.833,184.5 59.5,184.5C 59.2627,183.209 59.596,182.209 60.5,181.5C 129.497,182.833 198.83,183.5 268.5,183.5C 337.833,183.333 407.167,183.167 476.5,183C 475.139,181.416 474.472,179.582 474.5,177.5 Z"/></g>
<g><path style="opacity:0.49" fill="#c2cedd" d="M 5.5,193.5 C 53.335,192.169 101.335,192.169 149.5,193.5C 149.376,194.107 149.043,194.44 148.5,194.5C 101.003,193.501 53.3363,193.168 5.5,193.5 Z"/></g>
<g><path style="opacity:0.49" fill="#c2cedd" d="M 530.5,200.5 C 530.167,200.5 529.833,200.5 529.5,200.5C 529.5,198.167 529.5,195.833 529.5,193.5C 481.997,193.168 434.664,193.501 387.5,194.5C 386.957,194.44 386.624,194.107 386.5,193.5C 434.495,192.5 482.495,192.167 530.5,192.5C 530.5,195.167 530.5,197.833 530.5,200.5 Z"/></g>
<g><path style="opacity:0.142" fill="#d2dbe6" d="M 5.5,200.5 C 21.5,200.5 37.5,200.5 53.5,200.5C 53.7678,202.099 53.4345,203.432 52.5,204.5C 52.5,203.5 52.5,202.5 52.5,201.5C 36.6578,201.83 20.9911,201.496 5.5,200.5 Z"/></g>
<g><path style="opacity:0.142" fill="#d2dbe6" d="M 529.5,200.5 C 529.833,200.5 530.167,200.5 530.5,200.5C 515.328,201.167 499.995,201.833 484.5,202.5C 486.117,206.014 487.117,209.681 487.5,213.5C 485.39,209.498 484.057,205.165 483.5,200.5C 498.833,200.5 514.167,200.5 529.5,200.5 Z"/></g>
<g><path style="opacity:1" fill="#d6dee8" d="M 144.5,208.5 C 144.741,210.898 144.074,212.898 142.5,214.5C 142.595,212.214 143.262,210.214 144.5,208.5 Z"/></g>
<g><path style="opacity:0.094" fill="#d1dae6" d="M 391.5,208.5 C 392.738,210.214 393.405,212.214 393.5,214.5C 391.926,212.898 391.259,210.898 391.5,208.5 Z"/></g>
<g><path style="opacity:1" fill="#d7dfe9" d="M 141.5,215.5 C 142.33,218.38 141.663,221.046 139.5,223.5C 139.963,220.779 140.629,218.112 141.5,215.5 Z"/></g>
<g><path style="opacity:0.157" fill="#ccd6e3" d="M 489.5,222.5 C 491.561,228.196 492.561,234.196 492.5,240.5C 490.872,234.732 489.872,228.732 489.5,222.5 Z"/></g>
<g><path style="opacity:1" fill="#d5dde7" d="M 136.5,232.5 C 136.598,234.553 135.931,236.22 134.5,237.5C 134.402,235.447 135.069,233.78 136.5,232.5 Z"/></g>
<g><path style="opacity:1" fill="#d5dde8" d="M 133.5,240.5 C 133.598,242.553 132.931,244.22 131.5,245.5C 131.402,243.447 132.069,241.78 133.5,240.5 Z"/></g>
<g><path style="opacity:1" fill="#d7dee9" d="M 131.5,245.5 C 131.598,247.553 130.931,249.22 129.5,250.5C 129.402,248.447 130.069,246.78 131.5,245.5 Z"/></g>
<g><path style="opacity:0.078" fill="#d4dde7" d="M 406.5,249.5 C 408.625,252.088 409.958,255.088 410.5,258.5C 408.375,255.912 407.042,252.912 406.5,249.5 Z"/></g>
<g><path style="opacity:1" fill="#d4dce7" d="M 125.5,259.5 C 125.771,261.38 125.104,262.713 123.5,263.5C 123.66,261.847 124.326,260.514 125.5,259.5 Z"/></g>
<g><path style="opacity:0.573" fill="#c0cddc" d="M 412.5,262.5 C 413.434,263.568 413.768,264.901 413.5,266.5C 316.5,266.5 219.5,266.5 122.5,266.5C 122.263,265.209 122.596,264.209 123.5,263.5C 219.494,265.498 315.828,266.164 412.5,265.5C 412.5,264.5 412.5,263.5 412.5,262.5 Z"/></g>
<g><path style="opacity:0.239" fill="#ccd6e3" d="M 493.5,250.5 C 494.492,257.982 494.825,265.648 494.5,273.5C 343.833,273.5 193.167,273.5 42.5,273.5C 42.5,272.167 42.5,270.833 42.5,269.5C 43.404,270.209 43.7373,271.209 43.5,272.5C 193.5,272.5 343.5,272.5 493.5,272.5C 493.5,265.167 493.5,257.833 493.5,250.5 Z"/></g>
<g><path style="opacity:0.973" fill="#d1dae5" d="M 423.5,283.5 C 458.664,282.336 493.998,282.169 529.5,283C 530.451,286.057 530.784,289.223 530.5,292.5C 518.167,292.5 505.833,292.5 493.5,292.5C 505.322,291.505 517.322,291.172 529.5,291.5C 529.768,288.881 529.435,286.381 528.5,284C 493.502,283.5 458.502,283.333 423.5,283.5 Z"/></g>
<g><path style="opacity:1" fill="#dbe2eb" d="M 113.5,284.5 C 112.921,287.331 111.588,289.664 109.5,291.5C 110.079,288.669 111.412,286.336 113.5,284.5 Z"/></g>
<g><path style="opacity:1" fill="#d6dee8" d="M 425.5,288.5 C 427.588,290.336 428.921,292.669 429.5,295.5C 427.412,293.664 426.079,291.331 425.5,288.5 Z"/></g>
<g><path style="opacity:1" fill="#d4dce7" d="M 5.5,289.5 C 18.265,290.149 30.9317,290.815 43.5,291.5C 30.4559,292.147 17.7892,291.48 5.5,289.5 Z"/></g>
<g><path style="opacity:1" fill="#dce3eb" d="M 108.5,293.5 C 107.921,296.331 106.588,298.664 104.5,300.5C 105.079,297.669 106.412,295.336 108.5,293.5 Z"/></g>
<g><path style="opacity:1" fill="#d7dee9" d="M 431.5,299.5 C 432.906,299.973 433.573,300.973 433.5,302.5C 432.094,302.027 431.427,301.027 431.5,299.5 Z"/></g>
<g><path style="opacity:1" fill="#d6dde8" d="M 433.5,302.5 C 434.906,302.973 435.573,303.973 435.5,305.5C 434.094,305.027 433.427,304.027 433.5,302.5 Z"/></g>
<g><path style="opacity:0.929" fill="#d6dee8" d="M 103.5,302.5 C 103.573,304.027 102.906,305.027 101.5,305.5C 101.427,303.973 102.094,302.973 103.5,302.5 Z"/></g>
<g><path style="opacity:1" fill="#d0d9e5" d="M 493.5,292.5 C 493.551,300.531 492.218,308.197 489.5,315.5C 490.395,307.624 491.729,299.958 493.5,292.5 Z"/></g>
<g><path style="opacity:0.169" fill="#d0d9e5" d="M 44.5,299.5 C 46.0203,304.948 47.0203,310.614 47.5,316.5C 45.5476,311.127 44.5476,305.46 44.5,299.5 Z"/></g>
<g><path style="opacity:1" fill="#d6dde8" d="M 436.5,307.5 C 437.906,307.973 438.573,308.973 438.5,310.5C 437.094,310.027 436.427,309.027 436.5,307.5 Z"/></g>
<g><path style="opacity:1" fill="#d4dde7" d="M 439.5,312.5 C 440.906,312.973 441.573,313.973 441.5,315.5C 440.094,315.027 439.427,314.027 439.5,312.5 Z"/></g>
<g><path style="opacity:1" fill="#d3dce6" d="M 441.5,315.5 C 442.906,315.973 443.573,316.973 443.5,318.5C 442.094,318.027 441.427,317.027 441.5,315.5 Z"/></g>
<g><path style="opacity:0.31" fill="#cfd8e4" d="M 489.5,315.5 C 489.235,320.899 487.902,325.899 485.5,330.5C 486.387,325.278 487.721,320.278 489.5,315.5 Z"/></g>
<g><path style="opacity:1" fill="#d7dfe9" d="M 92.5,319.5 C 92.573,321.027 91.9063,322.027 90.5,322.5C 90.427,320.973 91.0937,319.973 92.5,319.5 Z"/></g>
<g><path style="opacity:0.945" fill="#d5dde7" d="M 443.5,318.5 C 444.906,318.973 445.573,319.973 445.5,321.5C 444.094,321.027 443.427,320.027 443.5,318.5 Z"/></g>
<g><path style="opacity:1" fill="#d7dfe9" d="M 445.5,321.5 C 446.906,321.973 447.573,322.973 447.5,324.5C 446.094,324.027 445.427,323.027 445.5,321.5 Z"/></g>
<g><path style="opacity:1" fill="#d6dfe9" d="M 90.5,322.5 C 90.573,324.027 89.9063,325.027 88.5,325.5C 88.427,323.973 89.0937,322.973 90.5,322.5 Z"/></g>
<g><path style="opacity:1" fill="#d7dfe9" d="M 447.5,324.5 C 449.262,325.262 450.262,326.596 450.5,328.5C 448.738,327.738 447.738,326.404 447.5,324.5 Z"/></g>
<g><path style="opacity:0.016" fill="#d4dce7" d="M 49.5,324.5 C 51.0395,326.838 51.7062,329.505 51.5,332.5C 50.2318,330.095 49.5651,327.428 49.5,324.5 Z"/></g>
<g><path style="opacity:1" fill="#d5dde7" d="M 450.5,328.5 C 451.906,328.973 452.573,329.973 452.5,331.5C 451.094,331.027 450.427,330.027 450.5,328.5 Z"/></g>
<g><path style="opacity:1" fill="#d5dee7" d="M 453.5,332.5 C 454.906,332.973 455.573,333.973 455.5,335.5C 454.094,335.027 453.427,334.027 453.5,332.5 Z"/></g>
<g><path style="opacity:1" fill="#cfd8e4" d="M 485.5,330.5 C 485.59,333.152 484.924,335.485 483.5,337.5C 483.41,334.848 484.076,332.515 485.5,330.5 Z"/></g>
<g><path style="opacity:0.957" fill="#d4dce7" d="M 83.5,332.5 C 83.573,334.027 82.9063,335.027 81.5,335.5C 81.427,333.973 82.0937,332.973 83.5,332.5 Z"/></g>
<g><path style="opacity:1" fill="#d8dfe9" d="M 455.5,335.5 C 457.262,336.262 458.262,337.596 458.5,339.5C 456.738,338.738 455.738,337.404 455.5,335.5 Z"/></g>
<g><path style="opacity:0.071" fill="#d5dee8" d="M 459.5,340.5 C 461.262,341.262 462.262,342.596 462.5,344.5C 460.738,343.738 459.738,342.404 459.5,340.5 Z"/></g>
<g><path style="opacity:1" fill="#d9e0ea" d="M 74.5,344.5 C 74.573,346.027 73.9063,347.027 72.5,347.5C 72.427,345.973 73.0937,344.973 74.5,344.5 Z"/></g>
<g><path style="opacity:1" fill="#d6dee8" d="M 463.5,345.5 C 464.906,345.973 465.573,346.973 465.5,348.5C 464.094,348.027 463.427,347.027 463.5,345.5 Z"/></g>
<g><path style="opacity:0.239" fill="#cbd5e3" d="M 71.5,348.5 C 136.83,349.833 202.497,350.5 268.5,350.5C 334.503,350.5 400.17,349.833 465.5,348.5C 466.478,348.811 467.145,349.478 467.5,350.5C 334.833,351.833 202.167,351.833 69.5,350.5C 69.8555,349.478 70.5222,348.811 71.5,348.5 Z"/></g>
<g><path style="opacity:1" fill="#d2dbe6" d="M 479.5,349.5 C 479.598,351.553 478.931,353.22 477.5,354.5C 477.402,352.447 478.069,350.78 479.5,349.5 Z"/></g>
<g><path style="opacity:1" fill="#d2dbe6" d="M 7.5,374.5 C 7.5,374.167 7.5,373.833 7.5,373.5C 181.5,373.333 355.5,373.5 529.5,374C 530.811,376.274 530.811,378.44 529.5,380.5C 528.833,380.5 528.5,380.167 528.5,379.5C 528.5,377.833 528.5,376.167 528.5,374.5C 354.833,374.5 181.167,374.5 7.5,374.5 Z"/></g>
<g><path style="opacity:1" fill="#fdfefe" d="M 7.5,374.5 C 181.167,374.5 354.833,374.5 528.5,374.5C 528.5,376.167 528.5,377.833 528.5,379.5C 528.167,379.5 527.833,379.5 527.5,379.5C 353.5,379.667 179.5,379.5 5.5,379C 6.09891,377.378 6.76558,375.878 7.5,374.5 Z"/></g>
<g><path style="opacity:1" fill="#dce3ec" d="M 7.5,373.5 C 7.5,373.833 7.5,374.167 7.5,374.5C 6.76558,375.878 6.09891,377.378 5.5,379C 179.5,379.5 353.5,379.667 527.5,379.5C 353.667,380.5 179.667,380.833 5.5,380.5C 4.37753,378.712 4.21086,376.712 5,374.5C 5.67076,373.748 6.5041,373.414 7.5,373.5 Z"/></g>
<g><path style="opacity:1" fill="#e2e8ef" d="M 527.5,379.5 C 527.833,379.5 528.167,379.5 528.5,379.5C 528.5,380.167 528.833,380.5 529.5,380.5C 354.833,381.833 180.167,381.833 5.5,380.5C 179.667,380.833 353.667,380.5 527.5,379.5 Z"/></g>
<g><path style="opacity:0.082" fill="#d0d9e5" d="M 253.5,401.5 C 255.38,401.229 256.713,401.896 257.5,403.5C 255.847,403.34 254.514,402.674 253.5,401.5 Z"/></g>
<g><path style="opacity:0.847" fill="#d6dee8" d="M 257.5,403.5 C 259.833,403.833 261.167,405.167 261.5,407.5C 259.833,406.5 258.5,405.167 257.5,403.5 Z"/></g>
<g><path style="opacity:0.706" fill="#c6d1e0" d="M 371.5,401.5 C 373.045,402.23 373.878,403.563 374,405.5C 374.808,409.027 374.641,412.36 373.5,415.5C 373.778,410.657 373.111,405.99 371.5,401.5 Z"/></g>
<g><path style="opacity:0.654" fill="#d1dae5" d="M 60.5,407.5 C 61.1751,434.069 61.8417,460.736 62.5,487.5C 60.5088,461.188 59.8421,434.521 60.5,407.5 Z"/></g>
<g><path style="opacity:0.663" fill="#d3dce6" d="M 131.5,405.5 C 131.5,432.833 131.5,460.167 131.5,487.5C 119.167,487.5 106.833,487.5 94.5,487.5C 106.322,486.505 118.322,486.172 130.5,486.5C 130.169,459.328 130.502,432.328 131.5,405.5 Z"/></g>
<g><path style="opacity:0.055" fill="#d1d9e5" d="M 390.5,412.5 C 390.037,415.482 389.704,418.482 389.5,421.5C 389.167,421.5 388.833,421.5 388.5,421.5C 388.215,418.171 388.882,415.171 390.5,412.5 Z"/></g>
<g><path style="opacity:1" fill="#dfe5ed" d="M 245.5,420.5 C 222.509,421.299 199.509,421.632 176.5,421.5C 176.918,420.778 177.584,420.278 178.5,420C 201.004,419.17 223.337,419.337 245.5,420.5 Z"/></g>
<g><path style="opacity:0.506" fill="#c2cddd" d="M 373.5,415.5 C 373.739,417.467 373.406,419.301 372.5,421C 346.803,421.194 321.137,421.694 295.5,422.5C 295.918,421.778 296.584,421.278 297.5,421C 322.167,420.667 346.833,420.333 371.5,420C 372.099,418.378 372.766,416.878 373.5,415.5 Z"/></g>
<g><path style="opacity:0.294" fill="#b8c5d7" d="M 388.5,421.5 C 388.833,421.5 389.167,421.5 389.5,421.5C 389.195,446.199 389.529,470.866 390.5,495.5C 389.778,495.082 389.278,494.416 389,493.5C 388.5,469.502 388.333,445.502 388.5,421.5 Z"/></g>
<g><path style="opacity:1" fill="#d9e0e9" d="M 408.5,422.5 C 408.5,443.833 408.5,465.167 408.5,486.5C 407.778,486.082 407.278,485.416 407,484.5C 406.333,464.5 406.333,444.5 407,424.5C 407.278,423.584 407.778,422.918 408.5,422.5 Z"/></g>
<g><path style="opacity:0.906" fill="#cfd9e5" d="M 294.5,423.5 C 294.34,425.153 293.674,426.486 292.5,427.5C 292.229,425.62 292.896,424.287 294.5,423.5 Z"/></g>
<g><path style="opacity:0.352" fill="#d1dae5" d="M 292.5,427.5 C 292.5,430.833 292.5,434.167 292.5,437.5C 291.694,436.003 291.028,434.336 290.5,432.5C 291.028,430.664 291.694,428.997 292.5,427.5 Z"/></g>
<g><path style="opacity:0.506" fill="#d3dbe6" d="M 292.5,437.5 C 293.674,438.514 294.34,439.847 294.5,441.5C 292.896,440.713 292.229,439.38 292.5,437.5 Z"/></g>
<g><path style="opacity:0.396" fill="#c8d2e0" d="M 432.5,449.5 C 432.372,453.881 432.705,458.215 433.5,462.5C 431.967,460.366 431.3,457.866 431.5,455C 431.506,452.967 431.839,451.134 432.5,449.5 Z"/></g>
<g><path style="opacity:0.363" fill="#c5d1df" d="M 492.5,453.5 C 493.661,467.994 493.828,482.661 493,497.5C 492.76,499.852 491.927,501.852 490.5,503.5C 490.838,501.146 491.338,498.813 492,496.5C 492.5,482.171 492.667,467.837 492.5,453.5 Z"/></g>
<g><path style="opacity:0.066" fill="#d6dee8" d="M 372.5,461.5 C 372.5,462.833 372.5,464.167 372.5,465.5C 347.145,465.214 321.812,465.547 296.5,466.5C 297.263,465.732 298.263,465.232 299.5,465C 323.498,464.5 347.498,464.333 371.5,464.5C 371.263,463.209 371.596,462.209 372.5,461.5 Z"/></g>
<g><path style="opacity:0.845" fill="#ced7e3" d="M 246.5,421.5 C 247.183,448.706 247.85,476.039 248.5,503.5C 247.883,503.389 247.383,503.056 247,502.5C 246.5,475.502 246.333,448.502 246.5,421.5 Z"/></g>
<g><path style="opacity:0.812" fill="#cad4e2" d="M 293.5,469.5 C 292.728,473.452 292.395,477.452 292.5,481.5C 291.84,480.036 291.507,478.369 291.5,476.5C 291.316,473.795 291.983,471.462 293.5,469.5 Z"/></g>
<g><path style="opacity:0.494" fill="#cad4e1" d="M 473.5,473.5 C 474.865,476.959 474.531,480.292 472.5,483.5C 473.051,480.193 473.384,476.86 473.5,473.5 Z"/></g>
<g><path style="opacity:0.055" fill="#d3dce6" d="M 293.5,483.5 C 294.833,484.167 295.833,485.167 296.5,486.5C 294.5,486.5 293.5,485.5 293.5,483.5 Z"/></g>
<g><path style="opacity:0.027" fill="#d6dee8" d="M 472.5,483.5 C 472.5,485.5 471.5,486.5 469.5,486.5C 470.167,485.167 471.167,484.167 472.5,483.5 Z"/></g>
<g><path style="opacity:0.366" fill="#c4cfde" d="M 298.5,487.5 C 323.19,486.843 347.523,487.51 371.5,489.5C 347.069,488.843 322.736,488.176 298.5,487.5 Z"/></g>
<g><path style="opacity:0.294" fill="#c7d2e1" d="M 372.5,492.5 C 373.16,493.964 373.493,495.631 373.5,497.5C 373.618,500.486 372.952,503.152 371.5,505.5C 372.2,501.202 372.533,496.869 372.5,492.5 Z"/></g>
<g><path style="opacity:0.016" fill="#d7dee9" d="M 390.5,495.5 C 392.42,498.762 394.754,501.762 397.5,504.5C 393.312,502.975 390.979,499.975 390.5,495.5 Z"/></g>
<g><path style="opacity:0.314" fill="#cbd5e2" d="M 530.5,500.5 C 530.829,503.228 530.163,505.562 528.5,507.5C 528.41,504.848 529.076,502.515 530.5,500.5 Z"/></g>
<g><path style="opacity:0.075" fill="#d4dce7" d="M 48.5,503.5 C 51.0177,504.264 53.351,505.264 55.5,506.5C 52.509,506.834 50.1757,505.834 48.5,503.5 Z"/></g>
<g><path style="opacity:0.749" fill="#dbe2eb" d="M 146.5,500.5 C 145.833,503.167 144.167,504.833 141.5,505.5C 142.833,503.5 144.5,501.833 146.5,500.5 Z"/></g>
<g><path style="opacity:0.565" fill="#cad5e2" d="M 262.5,504.5 C 260.71,505.997 258.544,506.664 256,506.5C 254.293,506.492 252.793,506.158 251.5,505.5C 255.215,505.577 258.881,505.244 262.5,504.5 Z"/></g>
<g><path style="opacity:0.472" fill="#c8d2e0" d="M 160.5,505.5 C 164.452,506.272 168.452,506.605 172.5,506.5C 171.036,507.16 169.369,507.493 167.5,507.5C 164.795,507.684 162.462,507.017 160.5,505.5 Z"/></g>
<g><path style="opacity:0.027" fill="#dce3eb" d="M 371.5,505.5 C 371.586,506.496 371.252,507.329 370.5,508C 344.833,508.667 319.167,508.667 293.5,508C 291.618,507.802 289.952,507.302 288.5,506.5C 316.241,506.824 343.907,506.491 371.5,505.5 Z"/></g>
<g><path style="opacity:1" fill="#dfe5ed" d="M 55.5,506.5 C 83.1667,506.5 110.833,506.5 138.5,506.5C 137.048,507.302 135.382,507.802 133.5,508C 109.833,508.667 86.1667,508.667 62.5,508C 59.9644,507.814 57.631,507.314 55.5,506.5 Z"/></g>
<g><path style="opacity:0.639" fill="#d2dbe7" d="M 6.5,507.5 C 7.67373,508.514 8.3404,509.847 8.5,511.5C 6.89578,510.713 6.22911,509.38 6.5,507.5 Z"/></g>
<g><path style="opacity:0.063" fill="#cfd8e4" d="M 523.5,518.5 C 523.573,520.027 522.906,521.027 521.5,521.5C 521.427,519.973 522.094,518.973 523.5,518.5 Z"/></g>
<g><path style="opacity:0.016" fill="#d7dee9" d="M 515.5,528.5 C 515.5,530.5 514.5,531.5 512.5,531.5C 513.167,530.167 514.167,529.167 515.5,528.5 Z"/></g>
<g><path style="opacity:0.016" fill="#d5dde7" d="M 510.5,533.5 C 510.027,534.906 509.027,535.573 507.5,535.5C 507.973,534.094 508.973,533.427 510.5,533.5 Z"/></g>
<g><path style="opacity:0.537" fill="#d4dde8" d="M 26.5,534.5 C 28.0269,534.427 29.0269,535.094 29.5,536.5C 27.9731,536.573 26.9731,535.906 26.5,534.5 Z"/></g>
<g><path style="opacity:0.663" fill="#d3dce7" d="M 29.5,536.5 C 31.0269,536.427 32.0269,537.094 32.5,538.5C 30.9731,538.573 29.9731,537.906 29.5,536.5 Z"/></g>
<g><path style="opacity:0.063" fill="#d2dbe6" d="M 34.5,539.5 C 36.5529,539.402 38.2196,540.069 39.5,541.5C 37.4471,541.598 35.7804,540.931 34.5,539.5 Z"/></g>
<g><path style="opacity:0.063" fill="#d7dfe9" d="M 47.5,543.5 C 192.195,543.171 336.861,543.505 481.5,544.5C 339.001,545.666 196.334,545.833 53.5,545C 51.2922,544.809 49.2922,544.309 47.5,543.5 Z"/></g>
</svg>
